<svg xmlns="http://www.w3.org/2000/svg" xmlns:xlink="http://www.w3.org/1999/xlink" width="127" zoomAndPan="magnify" viewBox="0 0 95.25 37.5" height="50" preserveAspectRatio="xMidYMid meet" version="1.0"><defs><clipPath id="7a007f37e4"><path d="M 39 10 L 93.472656 10 L 93.472656 28 L 39 28 Z M 39 10 " clip-rule="nonzero"/></clipPath><clipPath id="a8074dce96"><path d="M 0.957031 2 L 33 2 L 33 35 L 0.957031 35 Z M 0.957031 2 " clip-rule="nonzero"/></clipPath></defs><path fill="#ff4500" d="M 86.371094 13.542969 C 86.371094 13.808594 86.320312 14.066406 86.21875 14.3125 C 86.117188 14.558594 85.96875 14.777344 85.78125 14.964844 C 85.59375 15.152344 85.375 15.296875 85.128906 15.402344 C 84.882812 15.503906 84.625 15.554688 84.359375 15.554688 C 84.089844 15.554688 83.835938 15.503906 83.589844 15.402344 C 83.34375 15.296875 83.125 15.152344 82.933594 14.964844 C 82.746094 14.777344 82.601562 14.558594 82.5 14.3125 C 82.398438 14.066406 82.347656 13.808594 82.347656 13.542969 C 82.347656 13.273438 82.398438 13.019531 82.5 12.773438 C 82.601562 12.523438 82.746094 12.308594 82.933594 12.117188 C 83.125 11.929688 83.34375 11.785156 83.589844 11.683594 C 83.835938 11.582031 84.089844 11.53125 84.359375 11.53125 C 84.625 11.53125 84.882812 11.582031 85.128906 11.683594 C 85.375 11.785156 85.59375 11.929688 85.78125 12.117188 C 85.96875 12.308594 86.117188 12.523438 86.21875 12.773438 C 86.320312 13.019531 86.371094 13.273438 86.371094 13.542969 Z M 86.371094 13.542969 " fill-opacity="1" fill-rule="nonzero"/><g clip-path="url(#7a007f37e4)"><path fill="#222222" d="M 67.425781 10.257812 C 68.03125 10.257812 68.53125 10.734375 68.5625 11.332031 L 68.566406 11.398438 L 68.566406 26.03125 C 68.566406 26.65625 68.054688 27.171875 67.425781 27.171875 C 66.875 27.171875 66.402344 26.773438 66.308594 26.238281 C 65.527344 27.019531 64.542969 27.417969 63.382812 27.417969 C 60.386719 27.417969 57.957031 24.703125 57.957031 21.363281 C 57.957031 18.019531 60.386719 15.308594 63.382812 15.308594 C 64.496094 15.308594 65.433594 15.65625 66.199219 16.375 L 66.289062 16.464844 L 66.289062 11.398438 C 66.289062 10.769531 66.800781 10.257812 67.425781 10.257812 Z M 79.308594 10.257812 C 79.914062 10.257812 80.414062 10.734375 80.445312 11.332031 L 80.449219 11.398438 L 80.449219 26.03125 C 80.449219 26.65625 79.9375 27.171875 79.308594 27.171875 C 78.757812 27.171875 78.285156 26.773438 78.1875 26.238281 C 77.410156 27.019531 76.425781 27.417969 75.265625 27.417969 C 72.265625 27.417969 69.835938 24.703125 69.835938 21.363281 C 69.835938 18.019531 72.265625 15.308594 75.265625 15.308594 C 76.378906 15.308594 77.316406 15.65625 78.078125 16.375 L 78.171875 16.464844 L 78.171875 11.398438 C 78.171875 10.769531 78.683594 10.257812 79.308594 10.257812 Z M 51.785156 15.289062 C 54.3125 15.289062 56.4375 17.222656 57.042969 19.84375 L 57.066406 19.953125 C 57.09375 20.128906 57.125 20.347656 57.140625 20.660156 C 57.175781 21.359375 56.640625 22.078125 55.707031 22.121094 L 55.621094 22.121094 L 55.621094 22.082031 L 48.691406 22.082031 C 48.976562 23.808594 50.269531 25.121094 51.785156 25.121094 C 53.078125 25.121094 53.875 24.398438 54.292969 24.039062 C 54.730469 23.675781 55.316406 23.5625 55.792969 23.886719 C 56.359375 24.285156 56.457031 25.101562 55.980469 25.632812 C 55.011719 26.714844 53.664062 27.398438 51.785156 27.398438 C 48.789062 27.398438 46.359375 24.683594 46.359375 21.34375 C 46.359375 18.003906 48.789062 15.289062 51.785156 15.289062 Z M 90.136719 12.78125 L 90.203125 12.78125 C 90.789062 12.820312 91.234375 13.3125 91.265625 13.894531 L 91.265625 15.554688 L 92.3125 15.554688 C 92.882812 15.554688 93.355469 16.046875 93.316406 16.636719 C 93.28125 17.164062 92.839844 17.554688 92.335938 17.582031 L 92.273438 17.585938 L 91.265625 17.585938 L 91.265625 26.050781 C 91.265625 26.675781 90.773438 27.171875 90.109375 27.207031 C 89.503906 27.207031 89.007812 26.730469 88.972656 26.132812 L 88.96875 26.070312 L 88.96875 17.605469 L 88.003906 17.605469 C 87.433594 17.605469 86.957031 17.109375 86.996094 16.523438 C 87.03125 15.992188 87.472656 15.601562 87.980469 15.574219 L 88.988281 15.574219 L 88.988281 13.921875 C 88.988281 13.277344 89.503906 12.777344 90.136719 12.78125 Z M 45.523438 15.363281 C 46.054688 15.457031 46.472656 15.914062 46.472656 16.484375 C 46.472656 17.050781 46.046875 17.53125 45.507812 17.597656 L 45.445312 17.605469 L 45.21875 17.605469 C 43.050781 17.359375 41.472656 19.050781 41.425781 21.132812 L 41.421875 21.230469 L 41.421875 26.03125 C 41.421875 26.695312 40.871094 27.207031 40.207031 27.171875 C 39.621094 27.132812 39.179688 26.636719 39.148438 26.058594 L 39.144531 25.992188 L 39.144531 16.691406 C 39.144531 16.066406 39.65625 15.554688 40.285156 15.554688 C 40.832031 15.554688 41.382812 15.960938 41.421875 16.621094 L 41.421875 16.84375 C 42.316406 15.722656 43.871094 15.117188 45.523438 15.363281 Z M 84.359375 16.558594 C 84.964844 16.558594 85.460938 17.039062 85.496094 17.632812 L 85.496094 26.03125 C 85.496094 26.65625 84.984375 27.171875 84.359375 27.171875 C 83.753906 27.171875 83.253906 26.691406 83.222656 26.09375 L 83.21875 26.03125 L 83.21875 17.699219 C 83.21875 17.070312 83.730469 16.558594 84.359375 16.558594 Z M 63.402344 17.566406 C 61.65625 17.566406 60.253906 19.273438 60.253906 21.363281 C 60.253906 23.46875 61.65625 25.15625 63.402344 25.15625 C 65.128906 25.15625 66.554688 23.46875 66.554688 21.363281 C 66.554688 19.253906 65.148438 17.566406 63.402344 17.566406 Z M 75.265625 17.566406 C 73.519531 17.566406 72.117188 19.273438 72.117188 21.363281 C 72.117188 23.46875 73.519531 25.15625 75.265625 25.15625 C 77.011719 25.15625 78.417969 23.46875 78.417969 21.363281 C 78.417969 19.253906 77.011719 17.566406 75.265625 17.566406 Z M 51.769531 17.585938 C 50.433594 17.585938 49.277344 18.582031 48.820312 20.007812 L 48.789062 20.109375 L 54.746094 20.109375 C 54.3125 18.648438 53.132812 17.585938 51.769531 17.585938 Z M 51.769531 17.585938 " fill-opacity="1" fill-rule="nonzero"/></g><g clip-path="url(#a8074dce96)"><path fill="#ff4500" d="M 32.769531 18.496094 C 32.769531 19.015625 32.742188 19.535156 32.691406 20.054688 C 32.640625 20.574219 32.5625 21.089844 32.460938 21.597656 C 32.359375 22.109375 32.234375 22.613281 32.082031 23.113281 C 31.929688 23.613281 31.757812 24.101562 31.558594 24.582031 C 31.359375 25.0625 31.136719 25.535156 30.890625 25.992188 C 30.644531 26.453125 30.375 26.898438 30.085938 27.332031 C 29.796875 27.765625 29.488281 28.183594 29.15625 28.585938 C 28.828125 28.988281 28.476562 29.375 28.109375 29.742188 C 27.742188 30.113281 27.355469 30.460938 26.953125 30.792969 C 26.550781 31.121094 26.132812 31.433594 25.699219 31.722656 C 25.265625 32.011719 24.820312 32.277344 24.359375 32.523438 C 23.898438 32.769531 23.429688 32.992188 22.949219 33.191406 C 22.46875 33.390625 21.976562 33.566406 21.480469 33.71875 C 20.980469 33.867188 20.476562 33.996094 19.964844 34.097656 C 19.453125 34.199219 18.9375 34.273438 18.421875 34.324219 C 17.902344 34.375 17.382812 34.402344 16.863281 34.402344 C 16.339844 34.402344 15.820312 34.375 15.300781 34.324219 C 14.785156 34.273438 14.269531 34.199219 13.757812 34.097656 C 13.246094 33.996094 12.742188 33.867188 12.246094 33.71875 C 11.746094 33.566406 11.253906 33.390625 10.773438 33.191406 C 10.292969 32.992188 9.824219 32.769531 9.363281 32.523438 C 8.902344 32.277344 8.457031 32.011719 8.023438 31.722656 C 7.589844 31.433594 7.171875 31.121094 6.769531 30.792969 C 6.367188 30.460938 5.984375 30.113281 5.613281 29.742188 C 5.246094 29.375 4.894531 28.988281 4.566406 28.585938 C 4.234375 28.183594 3.925781 27.765625 3.636719 27.332031 C 3.347656 26.898438 3.078125 26.453125 2.832031 25.992188 C 2.589844 25.535156 2.367188 25.0625 2.167969 24.582031 C 1.96875 24.101562 1.792969 23.613281 1.640625 23.113281 C 1.488281 22.613281 1.363281 22.109375 1.261719 21.597656 C 1.160156 21.089844 1.082031 20.574219 1.03125 20.054688 C 0.980469 19.535156 0.957031 19.015625 0.957031 18.496094 C 0.957031 17.976562 0.980469 17.457031 1.03125 16.9375 C 1.082031 16.417969 1.160156 15.902344 1.261719 15.394531 C 1.363281 14.882812 1.488281 14.375 1.640625 13.878906 C 1.792969 13.378906 1.96875 12.890625 2.167969 12.410156 C 2.367188 11.925781 2.589844 11.457031 2.832031 10.996094 C 3.078125 10.539062 3.347656 10.09375 3.636719 9.660156 C 3.925781 9.226562 4.234375 8.808594 4.566406 8.40625 C 4.894531 8.003906 5.246094 7.617188 5.613281 7.25 C 5.984375 6.878906 6.367188 6.53125 6.769531 6.199219 C 7.171875 5.871094 7.589844 5.558594 8.023438 5.269531 C 8.457031 4.980469 8.902344 4.714844 9.363281 4.46875 C 9.824219 4.222656 10.292969 4 10.773438 3.800781 C 11.253906 3.601562 11.746094 3.425781 12.246094 3.273438 C 12.742188 3.125 13.246094 2.996094 13.757812 2.894531 C 14.269531 2.792969 14.785156 2.71875 15.300781 2.667969 C 15.820312 2.613281 16.339844 2.589844 16.863281 2.589844 C 17.382812 2.589844 17.902344 2.613281 18.421875 2.667969 C 18.9375 2.71875 19.453125 2.792969 19.964844 2.894531 C 20.476562 2.996094 20.980469 3.125 21.480469 3.273438 C 21.976562 3.425781 22.46875 3.601562 22.949219 3.800781 C 23.429688 4 23.898438 4.222656 24.359375 4.46875 C 24.820312 4.714844 25.265625 4.980469 25.699219 5.269531 C 26.132812 5.558594 26.550781 5.871094 26.953125 6.199219 C 27.355469 6.53125 27.742188 6.878906 28.109375 7.25 C 28.476562 7.617188 28.828125 8.003906 29.15625 8.40625 C 29.488281 8.808594 29.796875 9.226562 30.085938 9.660156 C 30.375 10.09375 30.644531 10.539062 30.890625 10.996094 C 31.136719 11.457031 31.359375 11.925781 31.558594 12.410156 C 31.757812 12.890625 31.929688 13.378906 32.082031 13.878906 C 32.234375 14.375 32.359375 14.882812 32.460938 15.394531 C 32.5625 15.902344 32.640625 16.417969 32.691406 16.9375 C 32.742188 17.457031 32.769531 17.976562 32.769531 18.496094 Z M 32.769531 18.496094 " fill-opacity="1" fill-rule="nonzero"/></g><path fill="#ffffff" d="M 27.472656 18.496094 C 27.472656 17.203125 26.429688 16.179688 25.15625 16.179688 C 24.53125 16.179688 23.960938 16.425781 23.542969 16.824219 C 21.949219 15.6875 19.765625 14.945312 17.335938 14.851562 L 18.398438 9.878906 L 21.851562 10.617188 C 21.890625 11.492188 22.613281 12.195312 23.503906 12.195312 C 24.414062 12.195312 25.15625 11.453125 25.15625 10.542969 C 25.15625 9.632812 24.414062 8.890625 23.503906 8.890625 C 22.859375 8.890625 22.289062 9.269531 22.023438 9.820312 L 18.171875 9.003906 C 18.058594 8.984375 17.945312 9.003906 17.867188 9.0625 C 17.773438 9.117188 17.714844 9.214844 17.695312 9.328125 L 16.519531 14.871094 C 14.050781 14.945312 11.832031 15.6875 10.21875 16.84375 C 9.800781 16.445312 9.230469 16.199219 8.605469 16.199219 C 7.3125 16.199219 6.289062 17.242188 6.289062 18.515625 C 6.289062 19.464844 6.859375 20.261719 7.65625 20.621094 C 7.617188 20.847656 7.597656 21.078125 7.597656 21.324219 C 7.597656 24.890625 11.753906 27.796875 16.878906 27.796875 C 22.003906 27.796875 26.164062 24.910156 26.164062 21.324219 C 26.164062 21.097656 26.144531 20.847656 26.105469 20.621094 C 26.902344 20.261719 27.472656 19.445312 27.472656 18.496094 Z M 11.566406 20.148438 C 11.566406 19.234375 12.304688 18.496094 13.21875 18.496094 C 14.128906 18.496094 14.867188 19.234375 14.867188 20.148438 C 14.867188 21.058594 14.128906 21.796875 13.21875 21.796875 C 12.304688 21.816406 11.566406 21.058594 11.566406 20.148438 Z M 20.808594 24.53125 C 19.671875 25.671875 17.507812 25.746094 16.878906 25.746094 C 16.234375 25.746094 14.070312 25.652344 12.953125 24.53125 C 12.78125 24.359375 12.78125 24.09375 12.953125 23.925781 C 13.121094 23.753906 13.386719 23.753906 13.558594 23.925781 C 14.28125 24.644531 15.796875 24.890625 16.878906 24.890625 C 17.960938 24.890625 19.5 24.644531 20.203125 23.925781 C 20.375 23.753906 20.640625 23.753906 20.808594 23.925781 C 20.960938 24.09375 20.960938 24.359375 20.808594 24.53125 Z M 20.503906 21.816406 C 19.59375 21.816406 18.855469 21.078125 18.855469 20.167969 C 18.855469 19.253906 19.59375 18.515625 20.503906 18.515625 C 21.417969 18.515625 22.15625 19.253906 22.15625 20.167969 C 22.15625 21.058594 21.417969 21.816406 20.503906 21.816406 Z M 20.503906 21.816406 " fill-opacity="1" fill-rule="nonzero"/></svg>